<svg xmlns="http://www.w3.org/2000/svg" width="26.771" height="26" viewBox="0 0 26.771 26">
  <g id="Group_645" data-name="Group 645" transform="translate(12417 15319)">
    <path id="Subtraction_56" data-name="Subtraction 56" d="M21,31.511H5a5.006,5.006,0,0,1-5-5v-16a5.006,5.006,0,0,1,5-5H20.41l-3.106,3H6a3,3,0,0,0-3,3v14a3,3,0,0,0,3,3H20a3,3,0,0,0,3-3V19.691l3-2.9V26.51A5.006,5.006,0,0,1,21,31.511Z" transform="translate(-12417 -15324.511)" fill="#4b6381"/>
    <path id="Path_207" data-name="Path 207" d="M8293.957,2997.887l4.523,4.541,11.984-11.451" transform="translate(-20702.814 -18305.059)" fill="none" stroke="#4b6381" stroke-linecap="round" stroke-width="3"/>
  </g>
</svg>
