<svg xmlns="http://www.w3.org/2000/svg" width="26" height="26" viewBox="0 0 26 26">
  <g id="Path_101" data-name="Path 101" fill="none">
    <path d="M5,0H21a5,5,0,0,1,5,5V21a5,5,0,0,1-5,5H5a5,5,0,0,1-5-5V5A5,5,0,0,1,5,0Z" stroke="none"/>
    <path d="M 5 3 C 3.897199630737305 3 3 3.897199630737305 3 5 L 3 21 C 3 22.1028003692627 3.897199630737305 23 5 23 L 11.53855037689209 23 L 21 23 C 22.1028003692627 23 23 22.1028003692627 23 21 L 23 5 C 23 3.897199630737305 22.1028003692627 3 21 3 L 5 3 M 5 0 L 21 0 C 23.76141929626465 0 26 2.238580703735352 26 5 L 26 21 C 26 23.76141929626465 23.76141929626465 26 21 26 L 11.53855037689209 26 L 5 26 C 2.238580703735352 26 0 23.76141929626465 0 21 L 0 5 C 0 2.238580703735352 2.238580703735352 0 5 0 Z" stroke="none" fill="#4b6381"/>
  </g>
</svg>
